<svg xmlns="http://www.w3.org/2000/svg" version="1.1" xmlns:xlink="http://www.w3.org/1999/xlink" xmlns:svgjs="http://svgjs.dev/svgjs" width="1000" height="383" viewBox="0 0 1000 383"><g transform="matrix(1,0,0,1,-0.6060606060606233,-0.27824401956345923)"><svg viewBox="0 0 396 152" data-background-color="#ffffff" preserveAspectRatio="xMidYMid meet" height="383" width="1000" xmlns="http://www.w3.org/2000/svg" xmlns:xlink="http://www.w3.org/1999/xlink"><g id="tight-bounds" transform="matrix(1,0,0,1,0.2400000000000091,0.11042582499646869)"><svg viewBox="0 0 395.52 151.77914835000706" height="151.77914835000706" width="395.52"><g><svg viewBox="0 0 686.9905436372795 263.6297523204254" height="151.77914835000706" width="395.52"><g transform="matrix(1,0,0,1,291.47054363727955,0)"><svg viewBox="0 0 395.52 263.6297523204254" height="263.6297523204254" width="395.52"><g id="textblocktransform"><svg viewBox="0 0 395.52 263.6297523204254" height="263.6297523204254" width="395.52" id="textblock"><g><svg viewBox="0 0 395.52 199.2544080604534" height="199.2544080604534" width="395.52"><g transform="matrix(1,0,0,1,0,0)"><svg width="395.52" viewBox="0.75 -35 69.47000122070312 35" height="199.2544080604534" data-palette-color="#ba3b0a"><path d="M16.28 0L10.83 0 10.83-29.9 0.75-29.9 0.75-35 26.35-35 26.35-29.9 16.28-29.9 16.28 0ZM47.72 0L42.27 0 42.27-35 47.72-35 47.72-20.8 64.77-20.8 64.77-35 70.22-35 70.22 0 64.77 0 64.77-15.68 47.72-15.68 47.72 0Z" opacity="1" transform="matrix(1,0,0,1,0,0)" fill="#ba3b0a" class="undefined-text-0" data-fill-palette-color="primary" id="text-0"></path></svg></g></svg></g><g transform="matrix(1,0,0,1,0,246.29359169773298)"><svg viewBox="0 0 232.209792 17.336160622692425" height="17.336160622692425" width="232.209792"><g transform="matrix(1,0,0,1,0,0)"><svg width="232.209792" viewBox="2.700000047683716 -33.27073287963867 494.54998779296875 36.92073440551758" height="17.336160622692425" data-palette-color="#ba3b0a"><path d="M5.45 0L2.7 0 2.7-32.75 5.45-32.75 5.45-17.55 19.55-17.55 19.55-32.75 22.3-32.75 22.3 0 19.55 0 19.55-15 5.45-15 5.45 0ZM46.3 0L29.1 0 29.1-32.75 46.15-32.75 46.15-30.3 31.85-30.3 31.85-17.9 44.8-17.9 44.8-15.45 31.85-15.45 31.85-2.45 46.3-2.45 46.3 0ZM53.75 0L50.85 0 60.25-32.75 65.05-32.75 74.09 0 71.15 0 69.09-7.55 55.85-7.55 53.75 0ZM56.55-10.05L68.45-10.05 63.05-30.25 62.2-30.25 56.55-10.05ZM82.29-2.55L95.94-2.55 95.94 0 79.54 0 79.54-32.75 82.29-32.75 82.29-2.55ZM111.04-30.2L102.39-30.2 102.39-32.75 122.49-32.75 122.49-30.2 113.79-30.2 113.79 0 111.04 0 111.04-30.2ZM130.44 0L127.69 0 127.69-32.75 130.44-32.75 130.44-17.55 144.54-17.55 144.54-32.75 147.29-32.75 147.29 0 144.54 0 144.54-15 130.44-15 130.44 0ZM196.28 0L179.08 0 179.08-32.75 196.13-32.75 196.13-30.3 181.83-30.3 181.83-17.9 194.78-17.9 194.78-15.45 181.83-15.45 181.83-2.45 196.28-2.45 196.28 0ZM222.83 1.5L221.23 3.65 217.98-1Q215.78 0.5 212.63 0.5 209.48 0.5 207.38-0.75 205.28-2 204.13-4.4L204.13-4.4Q201.98-8.9 201.98-16.8L201.98-16.8Q201.98-29.1 207.28-32.1L207.28-32.1Q209.38-33.3 212.16-33.27 214.93-33.25 216.78-32.45 218.63-31.65 219.78-30.25L219.78-30.25Q220.98-28.8 221.68-26.7L221.68-26.7Q222.98-22.95 222.98-16.8L222.98-16.8Q222.98-7 219.88-2.9L219.88-2.9 222.83 1.5ZM205.33-23.13Q205.08-21.4 205.01-20 204.93-18.6 204.93-16.13 204.93-13.65 205.21-11.33 205.48-9 206.23-6.7L206.23-6.7Q207.78-2.05 212.48-2.05L212.48-2.05Q214.68-2.05 216.18-3.15L216.18-3.15 213.38-5.9 214.63-8.5 217.98-5.1Q220.03-8.55 220.03-16.8L220.03-16.8Q220.08-23.3 218.88-26.1L218.88-26.1Q217.58-29.2 215.43-30.1L215.43-30.1Q214.13-30.7 212.48-30.7 210.83-30.7 209.53-30.13 208.23-29.55 207.43-28.45 206.63-27.35 206.11-26.1 205.58-24.85 205.33-23.13ZM227.68-9.45L227.68-9.45 227.68-32.75 230.43-32.75 230.43-9.8Q230.43-2.1 237.48-2.1L237.48-2.1Q241.03-2.1 242.78-4.23 244.53-6.35 244.53-9.8L244.53-9.8 244.53-32.75 247.28-32.75 247.28-9.45Q247.28-4.6 244.75-2.05 242.23 0.5 237.38 0.5 232.53 0.5 230.1-2.15 227.68-4.8 227.68-9.45ZM253.73 0L250.83 0 260.23-32.75 265.03-32.75 274.08 0 271.13 0 269.08-7.55 255.83-7.55 253.73 0ZM256.53-10.05L268.43-10.05 263.03-30.25 262.18-30.25 256.53-10.05ZM282.27-2.55L295.92-2.55 295.92 0 279.52 0 279.52-32.75 282.27-32.75 282.27-2.55ZM311.3-15.73Q306.82-16.8 304.75-18.88 302.67-20.95 302.67-24.9 302.67-28.85 305.4-31.05 308.12-33.25 312.42-33.25 316.72-33.25 321.17-31.7L321.17-31.7 320.47-29.15Q316.32-30.65 312.85-30.65 309.37-30.65 307.52-29.18 305.67-27.7 305.67-24.9 305.67-22.1 307.17-20.65 308.67-19.2 313.15-18.03 317.62-16.85 319.62-14.93 321.62-13 321.62-8.72 321.62-4.45 318.75-1.98 315.87 0.5 311.32 0.5L311.32 0.5Q307.92 0.5 302.72-0.95L302.72-0.95 303.37-3.5Q308.47-2.1 311.57-2.1 314.67-2.1 316.67-3.83 318.67-5.55 318.67-8.65 318.67-11.75 317.22-13.2 315.77-14.65 311.3-15.73ZM358.67 0L353.72 0 350.07-32.75 352.92-32.75 356.27-2.5 356.82-2.5 361.22-18.3 363.87-18.3 368.07-2.5 368.67-2.5 372.02-32.75 374.87-32.75 371.22 0 366.17 0 362.57-14.1 362.42-14.1 358.67 0ZM396.26 0L379.06 0 379.06-32.75 396.11-32.75 396.11-30.3 381.81-30.3 381.81-17.9 394.76-17.9 394.76-15.45 381.81-15.45 381.81-2.45 396.26-2.45 396.26 0ZM403.71 0L400.81 0 410.21-32.75 415.01-32.75 424.06 0 421.11 0 419.06-7.55 405.81-7.55 403.71 0ZM406.51-10.05L418.41-10.05 413.01-30.25 412.16-30.25 406.51-10.05ZM432.26-2.55L445.91-2.55 445.91 0 429.51 0 429.51-32.75 432.26-32.75 432.26-2.55ZM461.01-30.2L452.36-30.2 452.36-32.75 472.46-32.75 472.46-30.2 463.76-30.2 463.76 0 461.01 0 461.01-30.2ZM480.4 0L477.65 0 477.65-32.75 480.4-32.75 480.4-17.55 494.5-17.55 494.5-32.75 497.25-32.75 497.25 0 494.5 0 494.5-15 480.4-15 480.4 0Z" opacity="1" transform="matrix(1,0,0,1,0,0)" fill="#ba3b0a" class="undefined-text-1" data-fill-palette-color="secondary" id="text-1"></path></svg></g></svg></g></svg></g></svg></g><g transform="matrix(1,0,0,1,0,9.5991961602127)"><svg viewBox="0 0 244.43135999999998 244.43135999999998" height="244.43135999999998" width="244.43135999999998"><g><svg xmlns="http://www.w3.org/2000/svg" xmlns:xlink="http://www.w3.org/1999/xlink" version="1.0" x="0" y="0" viewBox="1 1 48 48" enable-background="new 0 0 50 50" xml:space="preserve" height="244.43135999999998" width="244.43135999999998" class="icon-icon-0" data-fill-palette-color="accent" id="icon-0"><g fill="#ba3b0a" data-fill-palette-color="accent"><g fill="#ba3b0a" data-fill-palette-color="accent"><rect x="1" y="1" fill="#ba3b0a" width="23" height="5" data-fill-palette-color="accent"></rect><rect x="1" y="10" fill="#ba3b0a" width="23" height="5" data-fill-palette-color="accent"></rect><rect x="1" y="19" fill="#ba3b0a" width="23" height="5" data-fill-palette-color="accent"></rect></g><g fill="#ba3b0a" data-fill-palette-color="accent"><rect x="26" y="26" fill="#ba3b0a" width="23" height="5" data-fill-palette-color="accent"></rect><rect x="26" y="35" fill="#ba3b0a" width="23" height="5" data-fill-palette-color="accent"></rect><rect x="26" y="44" fill="#ba3b0a" width="23" height="5" data-fill-palette-color="accent"></rect></g><g fill="#ba3b0a" data-fill-palette-color="accent"><rect x="19" y="26" fill="#ba3b0a" width="5" height="23" data-fill-palette-color="accent"></rect><rect x="10" y="26" fill="#ba3b0a" width="5" height="23" data-fill-palette-color="accent"></rect><rect x="1" y="26" fill="#ba3b0a" width="5" height="23" data-fill-palette-color="accent"></rect></g><g fill="#ba3b0a" data-fill-palette-color="accent"><rect x="44" y="1" fill="#ba3b0a" width="5" height="23" data-fill-palette-color="accent"></rect><rect x="35" y="1" fill="#ba3b0a" width="5" height="23" data-fill-palette-color="accent"></rect><rect x="26" y="1" fill="#ba3b0a" width="5" height="23" data-fill-palette-color="accent"></rect></g></g></svg></g></svg></g></svg></g><defs></defs></svg><rect width="395.52" height="151.77914835000706" fill="none" stroke="none" visibility="hidden"></rect></g></svg></g></svg>